<svg xmlns="http://www.w3.org/2000/svg" width="20" height="20" viewBox="0 0 20 20" fill="none">
<mask id="path-1-inside-1_824_49" fill="white">
<path d="M11.25 3.12494C11.25 3.00201 11.2137 2.88182 11.1458 2.77939C11.0778 2.67697 10.9811 2.59687 10.8678 2.54911C10.7546 2.50134 10.6297 2.48804 10.5089 2.51087C10.3882 2.5337 10.2768 2.59164 10.1888 2.67744L6.53 6.23994H4.375C3.87772 6.23994 3.40081 6.43748 3.04917 6.78911C2.69754 7.14075 2.5 7.61766 2.5 8.11494V11.8524C2.5 12.3497 2.69754 12.8266 3.04917 13.1783C3.40081 13.5299 3.87772 13.7274 4.375 13.7274H6.52875L10.1875 17.3212C10.2754 17.4073 10.3868 17.4656 10.5076 17.4887C10.6285 17.5118 10.7535 17.4987 10.867 17.4511C10.9805 17.4034 11.0774 17.3233 11.1455 17.2208C11.2136 17.1183 11.25 16.998 11.25 16.8749V3.12494ZM12.6388 6.48619C12.6899 6.42188 12.7531 6.36828 12.825 6.32844C12.8968 6.28861 12.9758 6.26333 13.0574 6.25404C13.139 6.24475 13.2217 6.25164 13.3006 6.27432C13.3796 6.29699 13.4533 6.33501 13.5175 6.38619L13.52 6.38744L13.5225 6.38994L13.5287 6.39494L13.5475 6.41119L13.605 6.46119C13.65 6.50369 13.7113 6.56119 13.7825 6.63869C13.9238 6.79244 14.1075 7.01619 14.2887 7.31369C14.6525 7.91369 15.005 8.80494 15.005 9.99869C15.005 11.1912 14.6525 12.0837 14.2887 12.6837C14.1429 12.9254 13.9733 13.1519 13.7825 13.3599C13.703 13.4463 13.6187 13.5281 13.53 13.6049L13.52 13.6137H13.5187C13.5187 13.6137 12.96 13.9174 12.64 13.5162C12.5371 13.3874 12.4892 13.2233 12.5068 13.0594C12.5243 12.8955 12.6059 12.7452 12.7338 12.6412L12.7363 12.6387L12.7587 12.6187C12.7812 12.5974 12.8187 12.5624 12.865 12.5124C12.9989 12.3654 13.1178 12.2055 13.22 12.0349C13.4825 11.6037 13.755 10.9324 13.755 9.99744C13.755 9.06369 13.4825 8.39369 13.22 7.96369C13.0915 7.75154 12.9369 7.55627 12.76 7.38244C12.6916 7.33271 12.6341 7.26963 12.5908 7.19702C12.5475 7.12441 12.5194 7.04377 12.5082 6.95999C12.497 6.87621 12.5029 6.79102 12.5256 6.70958C12.5482 6.62815 12.5871 6.55215 12.64 6.48619M14.7675 3.88619C14.7035 3.83324 14.6296 3.79357 14.5501 3.7695C14.4706 3.74543 14.3871 3.73745 14.3045 3.74602C14.2219 3.75459 14.1418 3.77954 14.069 3.81941C13.9961 3.85929 13.9319 3.91328 13.8802 3.97824C13.8284 4.0432 13.7901 4.11783 13.7676 4.19776C13.745 4.27768 13.7386 4.36131 13.7487 4.44375C13.7588 4.52619 13.7852 4.60578 13.8264 4.67789C13.8677 4.74999 13.9228 4.81316 13.9887 4.86369L14.0025 4.87619L14.0675 4.93244C14.1262 4.98494 14.2125 5.06619 14.3187 5.17619C14.5312 5.39744 14.8188 5.72994 15.1063 6.16869C15.6813 7.04494 16.2563 8.33494 16.2563 10.0049C16.2595 11.3675 15.8593 12.7006 15.1063 13.8362C14.8188 14.2737 14.5312 14.6037 14.3187 14.8237C14.2182 14.9283 14.1131 15.0284 14.0038 15.1237L13.99 15.1362H13.9887C13.8626 15.2406 13.7825 15.3903 13.7656 15.5532C13.7487 15.7161 13.7964 15.8791 13.8984 16.0071C14.0004 16.1352 14.1486 16.2181 14.3112 16.238C14.4737 16.258 14.6376 16.2133 14.7675 16.1137L14.8088 16.0799L14.9025 15.9987C14.9812 15.9274 15.09 15.8262 15.2188 15.6924C15.5652 15.3322 15.8774 14.9405 16.1512 14.5224C17.0377 13.1829 17.5087 11.6113 17.505 10.0049C17.5082 8.39714 17.0373 6.82408 16.1512 5.48244C15.8775 5.06385 15.5658 4.67136 15.22 4.30994C15.0893 4.17416 14.9525 4.04444 14.81 3.92119L14.7812 3.89744L14.7725 3.88994L14.77 3.88744L14.7675 3.88619Z"/>
</mask>
<path d="M11.25 3.12494C11.25 3.00201 11.2137 2.88182 11.1458 2.77939C11.0778 2.67697 10.9811 2.59687 10.8678 2.54911C10.7546 2.50134 10.6297 2.48804 10.5089 2.51087C10.3882 2.5337 10.2768 2.59164 10.1888 2.67744L6.53 6.23994H4.375C3.87772 6.23994 3.40081 6.43748 3.04917 6.78911C2.69754 7.14075 2.5 7.61766 2.5 8.11494V11.8524C2.5 12.3497 2.69754 12.8266 3.04917 13.1783C3.40081 13.5299 3.87772 13.7274 4.375 13.7274H6.52875L10.1875 17.3212C10.2754 17.4073 10.3868 17.4656 10.5076 17.4887C10.6285 17.5118 10.7535 17.4987 10.867 17.4511C10.9805 17.4034 11.0774 17.3233 11.1455 17.2208C11.2136 17.1183 11.25 16.998 11.25 16.8749V3.12494ZM12.6388 6.48619C12.6899 6.42188 12.7531 6.36828 12.825 6.32844C12.8968 6.28861 12.9758 6.26333 13.0574 6.25404C13.139 6.24475 13.2217 6.25164 13.3006 6.27432C13.3796 6.29699 13.4533 6.33501 13.5175 6.38619L13.52 6.38744L13.5225 6.38994L13.5287 6.39494L13.5475 6.41119L13.605 6.46119C13.65 6.50369 13.7113 6.56119 13.7825 6.63869C13.9238 6.79244 14.1075 7.01619 14.2887 7.31369C14.6525 7.91369 15.005 8.80494 15.005 9.99869C15.005 11.1912 14.6525 12.0837 14.2887 12.6837C14.1429 12.9254 13.9733 13.1519 13.7825 13.3599C13.703 13.4463 13.6187 13.5281 13.53 13.6049L13.52 13.6137H13.5187C13.5187 13.6137 12.96 13.9174 12.64 13.5162C12.5371 13.3874 12.4892 13.2233 12.5068 13.0594C12.5243 12.8955 12.6059 12.7452 12.7338 12.6412L12.7363 12.6387L12.7587 12.6187C12.7812 12.5974 12.8187 12.5624 12.865 12.5124C12.9989 12.3654 13.1178 12.2055 13.22 12.0349C13.4825 11.6037 13.755 10.9324 13.755 9.99744C13.755 9.06369 13.4825 8.39369 13.22 7.96369C13.0915 7.75154 12.9369 7.55627 12.76 7.38244C12.6916 7.33271 12.6341 7.26963 12.5908 7.19702C12.5475 7.12441 12.5194 7.04377 12.5082 6.95999C12.497 6.87621 12.5029 6.79102 12.5256 6.70958C12.5482 6.62815 12.5871 6.55215 12.64 6.48619M14.7675 3.88619C14.7035 3.83324 14.6296 3.79357 14.5501 3.7695C14.4706 3.74543 14.3871 3.73745 14.3045 3.74602C14.2219 3.75459 14.1418 3.77954 14.069 3.81941C13.9961 3.85929 13.9319 3.91328 13.8802 3.97824C13.8284 4.0432 13.7901 4.11783 13.7676 4.19776C13.745 4.27768 13.7386 4.36131 13.7487 4.44375C13.7588 4.52619 13.7852 4.60578 13.8264 4.67789C13.8677 4.74999 13.9228 4.81316 13.9887 4.86369L14.0025 4.87619L14.0675 4.93244C14.1262 4.98494 14.2125 5.06619 14.3187 5.17619C14.5312 5.39744 14.8188 5.72994 15.1063 6.16869C15.6813 7.04494 16.2563 8.33494 16.2563 10.0049C16.2595 11.3675 15.8593 12.7006 15.1063 13.8362C14.8188 14.2737 14.5312 14.6037 14.3187 14.8237C14.2182 14.9283 14.1131 15.0284 14.0038 15.1237L13.99 15.1362H13.9887C13.8626 15.2406 13.7825 15.3903 13.7656 15.5532C13.7487 15.7161 13.7964 15.8791 13.8984 16.0071C14.0004 16.1352 14.1486 16.2181 14.3112 16.238C14.4737 16.258 14.6376 16.2133 14.7675 16.1137L14.8088 16.0799L14.9025 15.9987C14.9812 15.9274 15.09 15.8262 15.2188 15.6924C15.5652 15.3322 15.8774 14.9405 16.1512 14.5224C17.0377 13.1829 17.5087 11.6113 17.505 10.0049C17.5082 8.39714 17.0373 6.82408 16.1512 5.48244C15.8775 5.06385 15.5658 4.67136 15.22 4.30994C15.0893 4.17416 14.9525 4.04444 14.81 3.92119L14.7812 3.89744L14.7725 3.88994L14.77 3.88744L14.7675 3.88619Z" fill="white"/>
<path d="M12.3827 12.2851L12.3814 12.2864L13.0886 12.9935L13.0898 12.9922L12.3827 12.2851ZM12.9611 6.91523L12.9586 6.91398L12.5114 7.8084L12.5139 7.80965L12.9611 6.91523ZM11.25 3.12494L12.25 3.12494L12.25 3.12484L11.25 3.12494ZM10.1888 2.67744L10.8864 3.39391L10.8868 3.39354L10.1888 2.67744ZM6.53 6.23994V7.23994H6.93643L7.22762 6.95641L6.53 6.23994ZM4.375 6.23994V7.23994V6.23994ZM2.5 8.11494H1.5H2.5ZM4.375 13.7274V14.7274V13.7274ZM6.52875 13.7274L7.22949 13.014L6.93772 12.7274H6.52875V13.7274ZM10.1875 17.3212L9.48676 18.0346L9.4875 18.0353L10.1875 17.3212ZM11.25 16.8749L12.25 16.8751V16.8749H11.25ZM13.5175 6.38619L12.8944 7.16833L12.9765 7.2337L13.0703 7.28062L13.5175 6.38619ZM13.52 6.38744L14.2271 5.68033L14.1124 5.56559L13.9672 5.49301L13.52 6.38744ZM13.5225 6.38994L12.8154 7.09705L12.8546 7.13621L12.8978 7.1708L13.5225 6.38994ZM13.5287 6.39494L14.1837 5.63924L14.1688 5.62636L14.1535 5.61408L13.5287 6.39494ZM13.5475 6.41119L14.2037 5.65659L14.2024 5.65549L13.5475 6.41119ZM13.605 6.46119L14.2916 5.73418L14.2767 5.72007L14.2612 5.70659L13.605 6.46119ZM13.7825 6.63869L14.5189 5.96215L14.5187 5.96189L13.7825 6.63869ZM14.2887 7.31369L15.1439 6.79527L15.1427 6.7934L14.2887 7.31369ZM14.2887 12.6837L13.4336 12.1653L13.4325 12.1671L14.2887 12.6837ZM13.7825 13.3599L14.5182 14.0372L14.5194 14.036L13.7825 13.3599ZM13.53 13.6049L12.8752 12.8491L12.8715 12.8523L13.53 13.6049ZM13.52 13.6137V14.6137H13.8957L14.1785 14.3663L13.52 13.6137ZM13.5187 13.6137V12.6137H13.2645L13.0411 12.7351L13.5187 13.6137ZM12.64 13.5162L13.4218 12.8927L13.4212 12.8918L12.64 13.5162ZM12.7338 12.6412L13.3649 13.4168L13.4046 13.3845L13.4409 13.3483L12.7338 12.6412ZM12.7363 12.6387L12.0719 11.8913L12.0499 11.9108L12.0291 11.9316L12.7363 12.6387ZM12.7587 12.6187L13.4231 13.3661L13.4344 13.3561L13.4454 13.3457L12.7587 12.6187ZM12.865 12.5124L13.5991 13.1915L13.6044 13.1857L12.865 12.5124ZM13.22 12.0349L12.3658 11.515L12.3623 11.5208L13.22 12.0349ZM13.22 7.96369L12.3647 8.48183L12.3665 8.48474L13.22 7.96369ZM12.76 7.38244L13.4608 6.66909L13.4081 6.61729L13.3483 6.57381L12.76 7.38244ZM14.7675 3.88619L14.1299 4.65658L14.218 4.72948L14.3203 4.78062L14.7675 3.88619ZM13.9887 4.86369L14.6614 4.12376L14.6304 4.09557L14.5972 4.07008L13.9887 4.86369ZM14.0025 4.87619L13.3298 5.61612L13.3389 5.62435L13.3481 5.63236L14.0025 4.87619ZM14.0675 4.93244L14.7338 4.18678L14.7279 4.18148L14.7219 4.17627L14.0675 4.93244ZM14.3187 5.17619L15.04 4.48349L15.038 4.48145L14.3187 5.17619ZM15.1063 6.16869L14.2698 6.71677L14.2702 6.71732L15.1063 6.16869ZM16.2563 10.0049L15.2562 10.0049L15.2563 10.0073L16.2563 10.0049ZM15.1063 13.8362L14.2729 13.2835L14.2705 13.287L15.1063 13.8362ZM14.3187 14.8237L13.5995 14.1289L13.5976 14.1309L14.3187 14.8237ZM14.0038 15.1237L13.3469 14.3697L13.3389 14.3766L13.3311 14.3838L14.0038 15.1237ZM13.99 15.1362V16.1362H14.3766L14.6627 15.8761L13.99 15.1362ZM13.9887 15.1362V14.1362H13.6286L13.3512 14.3658L13.9887 15.1362ZM14.7675 16.1137L15.3759 16.9073L15.3885 16.8977L15.4007 16.8877L14.7675 16.1137ZM14.8088 16.0799L15.442 16.8539L15.453 16.8449L15.4637 16.8356L14.8088 16.0799ZM14.9025 15.9987L15.5574 16.7544L15.5655 16.7474L15.5734 16.7402L14.9025 15.9987ZM15.2188 15.6924L15.9392 16.386L15.9395 16.3857L15.2188 15.6924ZM16.1512 14.5224L15.3173 13.9706L15.3147 13.9745L16.1512 14.5224ZM17.505 10.0049L16.505 10.003L16.505 10.0072L17.505 10.0049ZM16.1512 5.48244L15.3143 6.02979L15.3168 6.03352L16.1512 5.48244ZM15.22 4.30994L15.9426 3.61866L15.9406 3.61655L15.22 4.30994ZM14.81 3.92119L15.4641 3.16478L15.4556 3.15741L15.4469 3.15023L14.81 3.92119ZM14.7812 3.89744L14.1305 4.65669L14.1374 4.66261L14.1444 4.6684L14.7812 3.89744ZM14.7725 3.88994L14.0654 4.597L14.0925 4.62418L14.1217 4.64919L14.7725 3.88994ZM14.77 3.88744L15.4771 3.18037L15.3624 3.0656L15.2172 2.99301L14.77 3.88744ZM12.25 3.12484C12.25 2.80523 12.1557 2.49273 11.979 2.22643L10.3125 3.33236C10.2718 3.27091 10.25 3.19879 10.25 3.12504L12.25 3.12484ZM11.979 2.22643C11.8022 1.96013 11.5509 1.75186 11.2564 1.62767L10.4793 3.47054C10.4113 3.44188 10.3533 3.39382 10.3125 3.33236L11.979 2.22643ZM11.2564 1.62767C10.9619 1.50349 10.6373 1.46891 10.3233 1.52826L10.6946 3.49348C10.6222 3.50717 10.5473 3.49919 10.4793 3.47054L11.2564 1.62767ZM10.3233 1.52826C10.0092 1.58761 9.71962 1.73825 9.49075 1.96134L10.8868 3.39354C10.8339 3.44502 10.7671 3.47978 10.6946 3.49348L10.3233 1.52826ZM9.49113 1.96097L5.83238 5.52347L7.22762 6.95641L10.8864 3.39391L9.49113 1.96097ZM6.53 5.23994H4.375V7.23994H6.53V5.23994ZM4.375 5.23994C3.6125 5.23994 2.88124 5.54284 2.34207 6.08201L3.75628 7.49622C3.92038 7.33213 4.14294 7.23994 4.375 7.23994L4.375 5.23994ZM2.34207 6.08201C1.8029 6.62117 1.5 7.35244 1.5 8.11494L3.5 8.11494C3.5 7.88288 3.59219 7.66032 3.75628 7.49622L2.34207 6.08201ZM1.5 8.11494V11.8524H3.5V8.11494H1.5ZM1.5 11.8524C1.5 12.6149 1.8029 13.3462 2.34207 13.8854L3.75628 12.4712C3.59219 12.3071 3.5 12.0845 3.5 11.8524H1.5ZM2.34207 13.8854C2.88123 14.4245 3.6125 14.7274 4.375 14.7274L4.375 12.7274C4.14294 12.7274 3.92038 12.6353 3.75628 12.4712L2.34207 13.8854ZM4.375 14.7274H6.52875V12.7274H4.375V14.7274ZM5.82801 14.4409L9.48676 18.0346L10.8882 16.6078L7.22949 13.014L5.82801 14.4409ZM9.4875 18.0353C9.71602 18.2593 10.0056 18.4109 10.3199 18.4709L10.6954 16.5065C10.7679 16.5204 10.8348 16.5554 10.8875 16.607L9.4875 18.0353ZM10.3199 18.4709C10.6342 18.531 10.9592 18.497 11.2543 18.3731L10.4798 16.5291C10.5479 16.5005 10.6229 16.4927 10.6954 16.5065L10.3199 18.4709ZM11.2543 18.3731C11.5493 18.2492 11.8012 18.0409 11.9783 17.7744L10.3127 16.6673C10.3536 16.6058 10.4117 16.5577 10.4798 16.5291L11.2543 18.3731ZM11.9783 17.7744C12.1554 17.5079 12.25 17.1951 12.25 16.8751L10.25 16.8748C10.25 16.801 10.2718 16.7288 10.3127 16.6673L11.9783 17.7744ZM12.25 16.8749V3.12494H10.25V16.8749H12.25ZM13.4217 7.10833C13.391 7.14692 13.353 7.17908 13.3099 7.20298L12.34 5.45391C12.1532 5.55748 11.9887 5.69685 11.8558 5.86405L13.4217 7.10833ZM13.3099 7.20298C13.2668 7.22688 13.2194 7.24205 13.1705 7.24763L12.9443 5.26045C12.7321 5.2846 12.5268 5.35034 12.34 5.45391L13.3099 7.20298ZM13.1705 7.24763C13.1215 7.2532 13.0719 7.24906 13.0245 7.23546L13.5767 5.31318C13.3714 5.25422 13.1565 5.2363 12.9443 5.26045L13.1705 7.24763ZM13.0245 7.23546C12.9772 7.22185 12.9329 7.19904 12.8944 7.16833L14.1406 5.60405C13.9736 5.47098 13.7819 5.37213 13.5767 5.31318L13.0245 7.23546ZM13.0703 7.28062L13.0728 7.28187L13.9672 5.49301L13.9647 5.49176L13.0703 7.28062ZM12.8129 7.09455L12.8154 7.09705L14.2296 5.68283L14.2271 5.68033L12.8129 7.09455ZM12.8978 7.1708L12.904 7.1758L14.1535 5.61408L14.1472 5.60908L12.8978 7.1708ZM12.8738 7.15064L12.8926 7.16689L14.2024 5.65549L14.1837 5.63924L12.8738 7.15064ZM12.8913 7.16579L12.9488 7.21579L14.2612 5.70659L14.2037 5.65659L12.8913 7.16579ZM12.9184 7.1882C12.9634 7.23073 13.0015 7.2667 13.0463 7.31549L14.5187 5.96189C14.421 5.85568 14.3366 5.77664 14.2916 5.73418L12.9184 7.1882ZM13.0461 7.31523C13.1523 7.43083 13.2939 7.60276 13.4348 7.83398L15.1427 6.7934C14.9211 6.42962 14.6952 6.15405 14.5189 5.96215L13.0461 7.31523ZM13.4336 7.83211C13.7159 8.29766 14.005 9.01172 14.005 9.99869H16.005C16.005 8.59816 15.5891 7.52972 15.1439 6.79527L13.4336 7.83211ZM14.005 9.99869C14.005 10.9845 13.7158 11.6998 13.4336 12.1653L15.1439 13.2021C15.5892 12.4675 16.005 11.3978 16.005 9.99869H14.005ZM13.4325 12.1671C13.3211 12.3518 13.1915 12.5249 13.0456 12.6839L14.5194 14.036C14.7552 13.7789 14.9648 13.499 15.145 13.2003L13.4325 12.1671ZM13.0468 12.6827C12.9928 12.7413 12.9355 12.7969 12.8752 12.8491L14.1848 14.3608C14.3019 14.2593 14.4133 14.1512 14.5182 14.0372L13.0468 12.6827ZM12.8715 12.8523L12.8615 12.8611L14.1785 14.3663L14.1885 14.3575L12.8715 12.8523ZM13.52 12.6137H13.5187V14.6137H13.52V12.6137ZM13.5187 13.6137C13.0411 12.7351 13.0415 12.7349 13.0418 12.7348C13.0419 12.7347 13.0423 12.7345 13.0425 12.7344C13.0429 12.7342 13.0434 12.7339 13.0438 12.7337C13.0446 12.7332 13.0455 12.7328 13.0463 12.7323C13.0479 12.7315 13.0494 12.7307 13.0508 12.7299C13.0536 12.7285 13.056 12.7272 13.0581 12.7262C13.0622 12.7241 13.065 12.7227 13.0665 12.722C13.0695 12.7206 13.0687 12.721 13.0655 12.7223C13.0556 12.7261 13.0512 12.7264 13.0574 12.7255C13.0618 12.7249 13.1117 12.7176 13.1882 12.7395C13.2792 12.7656 13.3652 12.8217 13.4218 12.8927L11.8582 14.1397C12.3251 14.7252 12.9722 14.7582 13.3414 14.7053C13.5273 14.6786 13.6826 14.628 13.7874 14.5875C13.8415 14.5665 13.8869 14.5464 13.9217 14.5299C13.9392 14.5217 13.9542 14.5142 13.9667 14.5079C13.9729 14.5047 13.9785 14.5018 13.9835 14.4992C13.986 14.4979 13.9883 14.4966 13.9904 14.4955C13.9915 14.4949 13.9925 14.4943 13.9935 14.4938C13.994 14.4935 13.9945 14.4933 13.995 14.493C13.9952 14.4929 13.9956 14.4927 13.9957 14.4926C13.996 14.4924 13.9964 14.4923 13.5187 13.6137ZM13.4212 12.8918C13.4829 12.9691 13.5116 13.0676 13.5011 13.1659L11.5125 12.9529C11.4668 13.3789 11.5913 13.8058 11.8588 14.1405L13.4212 12.8918ZM13.5011 13.1659C13.4906 13.2643 13.4416 13.3544 13.3649 13.4168L12.1026 11.8655C11.7702 12.136 11.5581 12.5268 11.5125 12.9529L13.5011 13.1659ZM13.4409 13.3483L13.4434 13.3458L12.0291 11.9316L12.0266 11.9341L13.4409 13.3483ZM13.4006 13.3861L13.4231 13.3661L12.0944 11.8713L12.0719 11.8913L13.4006 13.3861ZM13.4454 13.3457C13.4679 13.3244 13.5275 13.2688 13.5991 13.1915L12.1309 11.8334C12.11 11.856 12.0946 11.8704 12.0721 11.8917L13.4454 13.3457ZM13.6044 13.1857C13.7829 12.9897 13.9414 12.7764 14.0777 12.549L12.3623 11.5208C12.2941 11.6345 12.2149 11.7412 12.1256 11.8392L13.6044 13.1857ZM14.0742 12.5549C14.42 11.9868 14.755 11.1378 14.755 9.99744H12.755C12.755 10.7271 12.545 11.2205 12.3658 11.515L14.0742 12.5549ZM14.755 9.99744C14.755 8.85807 14.4198 8.00987 14.0735 7.44264L12.3665 8.48474C12.5452 8.77751 12.755 9.26931 12.755 9.99744H14.755ZM14.0753 7.44555C13.9036 7.16214 13.6972 6.9013 13.4608 6.66909L12.0592 8.09579C12.1767 8.21125 12.2793 8.34093 12.3647 8.48183L14.0753 7.44555ZM13.3483 6.57381C13.3893 6.60365 13.4239 6.6415 13.4498 6.68507L11.7318 7.70897C11.8443 7.89776 11.994 8.06177 12.1717 8.19106L13.3483 6.57381ZM13.4498 6.68507C13.4758 6.72863 13.4927 6.77702 13.4994 6.82728L11.5171 7.0927C11.5462 7.31053 11.6193 7.52018 11.7318 7.70897L13.4498 6.68507ZM13.4994 6.82728C13.5061 6.87756 13.5026 6.92867 13.489 6.97753L11.5621 6.44164C11.5032 6.65338 11.4879 6.87486 11.5171 7.0927L13.4994 6.82728ZM13.489 6.97753C13.4754 7.02639 13.452 7.07199 13.4203 7.11156L11.8597 5.86081C11.7222 6.03231 11.621 6.2299 11.5621 6.44164L13.489 6.97753ZM15.4051 3.1158C15.2387 2.97812 15.0466 2.87498 14.8399 2.8124L14.2604 4.7266C14.2127 4.71216 14.1683 4.68835 14.1299 4.65658L15.4051 3.1158ZM14.8399 2.8124C14.6332 2.74983 14.4161 2.72908 14.2013 2.75136L14.4077 4.74068C14.3581 4.74583 14.3081 4.74104 14.2604 4.7266L14.8399 2.8124ZM14.2013 2.75136C13.9865 2.77364 13.7783 2.83851 13.5889 2.94218L14.549 4.69665C14.5053 4.72057 14.4573 4.73554 14.4077 4.74068L14.2013 2.75136ZM13.5889 2.94218C13.3995 3.04585 13.2326 3.18623 13.098 3.35513L14.6623 4.60135C14.6313 4.64033 14.5928 4.67273 14.549 4.69665L13.5889 2.94218ZM13.098 3.35513C12.9635 3.52403 12.8639 3.71806 12.8052 3.92587L14.7299 4.46964C14.7163 4.5176 14.6934 4.56237 14.6623 4.60135L13.098 3.35513ZM12.8052 3.92587C12.7465 4.13368 12.7298 4.35111 12.7561 4.56545L14.7412 4.32205C14.7473 4.37151 14.7434 4.42168 14.7299 4.46964L12.8052 3.92587ZM12.7561 4.56545C12.7824 4.77979 12.8511 4.98674 12.9583 5.17421L14.6946 4.18156C14.7193 4.22482 14.7352 4.27258 14.7412 4.32205L12.7561 4.56545ZM12.9583 5.17421C13.0655 5.36168 13.2089 5.52591 13.3803 5.6573L14.5972 4.07008C14.6367 4.1004 14.6698 4.1383 14.6946 4.18156L12.9583 5.17421ZM13.3161 5.60362L13.3298 5.61612L14.6752 4.13626L14.6614 4.12376L13.3161 5.60362ZM13.3481 5.63236L13.4131 5.68861L14.7219 4.17627L14.6569 4.12002L13.3481 5.63236ZM13.4012 5.6781C13.4411 5.71382 13.5098 5.77804 13.5995 5.87093L15.038 4.48145C14.9152 4.35434 14.8114 4.25606 14.7338 4.18678L13.4012 5.6781ZM13.5975 5.86889C13.776 6.05466 14.0224 6.33923 14.2698 6.71677L15.9427 5.62061C15.6151 5.12065 15.2865 4.74022 15.04 4.48349L13.5975 5.86889ZM14.2702 6.71732C14.7659 7.47269 15.2563 8.57479 15.2563 10.0049H17.2563C17.2563 8.09509 16.5966 6.61719 15.9423 5.62006L14.2702 6.71732ZM15.2563 10.0073C15.259 11.1725 14.9168 12.3124 14.2729 13.2835L15.9396 14.3889C16.8018 13.0888 17.2599 11.5626 17.2562 10.0026L15.2563 10.0073ZM14.2705 13.287C14.024 13.6622 13.7782 13.9439 13.5995 14.129L15.038 15.5184C15.2843 15.2634 15.6135 14.8852 15.942 14.3854L14.2705 13.287ZM13.5976 14.1309C13.5176 14.2141 13.434 14.2938 13.3469 14.3697L14.6606 15.8777C14.7923 15.763 14.9188 15.6425 15.0399 15.5165L13.5976 14.1309ZM13.3311 14.3838L13.3173 14.3963L14.6627 15.8761L14.6764 15.8636L13.3311 14.3838ZM13.99 14.1362H13.9887V16.1362H13.99V14.1362ZM13.3512 14.3658C13.0232 14.6372 12.8148 15.0265 12.7709 15.45L14.7602 15.6564C14.7501 15.7541 14.702 15.8439 14.6263 15.9066L13.3512 14.3658ZM12.7709 15.45C12.727 15.8735 12.851 16.2973 13.1163 16.6302L14.6805 15.384C14.7417 15.4609 14.7704 15.5587 14.7602 15.6564L12.7709 15.45ZM13.1163 16.6302C13.3815 16.9632 13.7669 17.1788 14.1895 17.2306L14.4329 15.2455C14.5304 15.2574 14.6193 15.3072 14.6805 15.384L13.1163 16.6302ZM14.1895 17.2306C14.612 17.2824 15.0381 17.1663 15.3759 16.9073L14.1591 15.3201C14.237 15.2603 14.3354 15.2335 14.4329 15.2455L14.1895 17.2306ZM15.4007 16.8877L15.442 16.8539L14.1755 15.306L14.1343 15.3397L15.4007 16.8877ZM15.4637 16.8356L15.5574 16.7544L14.2476 15.243L14.1538 15.3243L15.4637 16.8356ZM15.5734 16.7402C15.6633 16.6589 15.7898 16.5412 15.9392 16.386L14.4983 14.9989C14.3902 15.1112 14.2992 15.196 14.2316 15.2572L15.5734 16.7402ZM15.9395 16.3857C16.329 15.9807 16.6799 15.5404 16.9878 15.0703L15.3147 13.9745C15.0749 14.3407 14.8015 14.6837 14.498 14.9992L15.9395 16.3857ZM16.9852 15.0743C17.9804 13.5704 18.5091 11.806 18.505 10.0027L16.505 10.0072C16.5082 11.4165 16.095 12.7953 15.3173 13.9706L16.9852 15.0743ZM18.505 10.0069C18.5085 8.20249 17.9801 6.43706 16.9857 4.93136L15.3168 6.03352C16.0945 7.21109 16.5078 8.59179 16.505 10.003L18.505 10.0069ZM16.9882 4.9351C16.6808 4.46512 16.3308 4.02445 15.9426 3.61866L14.4974 5.00122C14.8007 5.31826 15.0742 5.66258 15.3143 6.02978L16.9882 4.9351ZM15.9406 3.61655C15.7887 3.45876 15.6297 3.30801 15.4641 3.16478L14.1559 4.6776C14.2753 4.78087 14.39 4.88956 14.4994 5.00333L15.9406 3.61655ZM15.4469 3.15023L15.4181 3.12648L14.1444 4.6684L14.1731 4.69215L15.4469 3.15023ZM15.432 3.13819L15.4233 3.13069L14.1217 4.64919L14.1305 4.65669L15.432 3.13819ZM15.4796 3.18287L15.4771 3.18037L14.0629 4.5945L14.0654 4.597L15.4796 3.18287ZM15.2172 2.99301L15.2147 2.99176L14.3203 4.78062L14.3228 4.78187L15.2172 2.99301Z" fill="black" mask="url(#path-1-inside-1_824_49)"/>
</svg>