<svg width="1440" height="725" viewBox="0 0 1440 725" fill="none" xmlns="http://www.w3.org/2000/svg">
<path d="M380 159.559L160.03 445.309H599.97L380 159.559Z" fill="#61BECB"/>
<g filter="url(#filter0_d_1018_17)">
<path d="M380 231.743C380.794 247.482 417.142 239.59 434.769 231.743L380 159.559L325.231 231.743C325.231 231.743 379.206 216.004 380 231.743Z" fill="white"/>
<path d="M380 231.743C380.794 247.482 417.142 239.59 434.769 231.743L380 159.559L325.231 231.743C325.231 231.743 379.206 216.004 380 231.743Z" stroke="white"/>
</g>
<path d="M383.206 159.789C383.146 159.673 382.818 159.729 382.704 159.729C382.3 159.729 381.929 159.719 381.539 159.605C381.012 159.452 380.459 159.486 380.06 159.101C379.58 158.638 378.788 159.905 378.563 160.224C378.461 160.368 378.426 160.331 378.653 160.331C378.971 160.331 379.281 160.215 379.588 160.147C380.068 160.04 380.467 160.03 380.964 160.03C381.542 160.03 382.121 159.967 382.659 160.197C382.782 160.25 383.163 160.415 382.804 160.391C382.514 160.371 382.267 160.225 381.993 160.143C381.469 159.987 380.904 159.921 380.365 159.829C379.68 159.713 378.995 159.729 378.303 159.729C377.746 159.729 377.253 160.096 376.719 160.21C376.627 160.23 376.16 160.564 376.359 160.571C376.769 160.587 377.172 160.55 377.579 160.618C378.577 160.786 379.516 160.511 380.514 160.511C381.233 160.511 382.417 160.302 382.894 160.992" stroke="#99E9F4" stroke-width="3" stroke-linecap="round"/>
<path d="M394.515 168.048C389.832 168.048 386.343 165.194 381.976 163.908C379.129 163.069 376.148 162.664 373.272 161.908C372.66 161.747 372.143 161.559 371.512 161.559" stroke="#99E9F4" stroke-width="3" stroke-linecap="round"/>
<path d="M1239 2.55908L1019.03 288.309H1458.97L1239 2.55908Z" fill="#61BECB"/>
<g filter="url(#filter1_d_1018_17)">
<path d="M1239 74.743C1239.79 90.4823 1276.14 82.5896 1293.77 74.743L1239 2.55908L1184.23 74.743C1184.23 74.743 1238.21 59.0036 1239 74.743Z" fill="white"/>
<path d="M1239 74.743C1239.79 90.4823 1276.14 82.5896 1293.77 74.743L1239 2.55908L1184.23 74.743C1184.23 74.743 1238.21 59.0036 1239 74.743Z" stroke="white"/>
</g>
<path d="M1242.21 2.78914C1242.15 2.67339 1241.82 2.72897 1241.7 2.72897C1241.3 2.72897 1240.93 2.71883 1240.54 2.60531C1240.01 2.4518 1239.46 2.48584 1239.06 2.10061C1238.58 1.63763 1237.79 2.90472 1237.56 3.22365C1237.46 3.36827 1237.43 3.3306 1237.65 3.3306C1237.97 3.3306 1238.28 3.2153 1238.59 3.14677C1239.07 3.03994 1239.47 3.02979 1239.96 3.02979C1240.54 3.02979 1241.12 2.96723 1241.66 3.19691C1241.78 3.24971 1242.16 3.41516 1241.8 3.39076C1241.51 3.37103 1241.27 3.22507 1240.99 3.14343C1240.47 2.98685 1239.9 2.9208 1239.36 2.82925C1238.68 2.71298 1237.99 2.72897 1237.3 2.72897C1236.75 2.72897 1236.25 3.09588 1235.72 3.21028C1235.63 3.23005 1235.16 3.56357 1235.36 3.57125C1235.77 3.58707 1236.17 3.5499 1236.58 3.61805C1237.58 3.78556 1238.52 3.51109 1239.51 3.51109C1240.23 3.51109 1241.42 3.30183 1241.89 3.99239" stroke="#99E9F4" stroke-width="3" stroke-linecap="round"/>
<path d="M1253.51 11.048C1248.83 11.048 1245.34 8.19408 1240.98 6.90811C1238.13 6.06944 1235.15 5.66449 1232.27 4.90795C1231.66 4.747 1231.14 4.55908 1230.51 4.55908" stroke="#99E9F4" stroke-width="3" stroke-linecap="round"/>
<g filter="url(#filter2_d_1018_17)">
<path d="M938 141L1100.81 404.25H775.187L938 141Z" fill="#61BECB"/>
<g filter="url(#filter3_d_1018_17)">
<path d="M938 207.5C937.413 222 910.509 214.729 897.463 207.5L938 141L978.538 207.5C978.538 207.5 938.588 193 938 207.5Z" fill="white"/>
<path d="M938 207.5C937.413 222 910.509 214.729 897.463 207.5L938 141L978.538 207.5C978.538 207.5 938.588 193 938 207.5Z" stroke="white"/>
</g>
</g>
<g filter="url(#filter4_d_1018_17)">
<path d="M167 84L332.411 347.25H1.58914L167 84Z" fill="#61BECB"/>
<g filter="url(#filter5_d_1018_17)">
<path d="M167 150.5C166.403 165 139.07 157.729 125.815 150.5L167 84L208.184 150.5C208.184 150.5 167.597 136 167 150.5Z" fill="white"/>
<path d="M167 150.5C166.403 165 139.07 157.729 125.815 150.5L167 84L208.184 150.5C208.184 150.5 167.597 136 167 150.5Z" stroke="white"/>
</g>
</g>
<rect x="-9" y="286" width="1466" height="439" fill="#A6F2A0"/>
<defs>
<filter id="filter0_d_1018_17" x="319.917" y="158.732" width="119.63" height="90.5908" filterUnits="userSpaceOnUse" color-interpolation-filters="sRGB">
<feFlood flood-opacity="0" result="BackgroundImageFix"/>
<feColorMatrix in="SourceAlpha" type="matrix" values="0 0 0 0 0 0 0 0 0 0 0 0 0 0 0 0 0 0 127 0" result="hardAlpha"/>
<feOffset dy="4"/>
<feGaussianBlur stdDeviation="2"/>
<feComposite in2="hardAlpha" operator="out"/>
<feColorMatrix type="matrix" values="0 0 0 0 0 0 0 0 0 0 0 0 0 0 0 0 0 0 0.25 0"/>
<feBlend mode="normal" in2="BackgroundImageFix" result="effect1_dropShadow_1018_17"/>
<feBlend mode="normal" in="SourceGraphic" in2="effect1_dropShadow_1018_17" result="shape"/>
</filter>
<filter id="filter1_d_1018_17" x="1178.92" y="1.73193" width="119.63" height="90.5908" filterUnits="userSpaceOnUse" color-interpolation-filters="sRGB">
<feFlood flood-opacity="0" result="BackgroundImageFix"/>
<feColorMatrix in="SourceAlpha" type="matrix" values="0 0 0 0 0 0 0 0 0 0 0 0 0 0 0 0 0 0 127 0" result="hardAlpha"/>
<feOffset dy="4"/>
<feGaussianBlur stdDeviation="2"/>
<feComposite in2="hardAlpha" operator="out"/>
<feColorMatrix type="matrix" values="0 0 0 0 0 0 0 0 0 0 0 0 0 0 0 0 0 0 0.25 0"/>
<feBlend mode="normal" in2="BackgroundImageFix" result="effect1_dropShadow_1018_17"/>
<feBlend mode="normal" in="SourceGraphic" in2="effect1_dropShadow_1018_17" result="shape"/>
</filter>
<filter id="filter2_d_1018_17" x="771.188" y="140.04" width="333.625" height="272.21" filterUnits="userSpaceOnUse" color-interpolation-filters="sRGB">
<feFlood flood-opacity="0" result="BackgroundImageFix"/>
<feColorMatrix in="SourceAlpha" type="matrix" values="0 0 0 0 0 0 0 0 0 0 0 0 0 0 0 0 0 0 127 0" result="hardAlpha"/>
<feOffset dy="4"/>
<feGaussianBlur stdDeviation="2"/>
<feComposite in2="hardAlpha" operator="out"/>
<feColorMatrix type="matrix" values="0 0 0 0 0 0 0 0 0 0 0 0 0 0 0 0 0 0 0.25 0"/>
<feBlend mode="normal" in2="BackgroundImageFix" result="effect1_dropShadow_1018_17"/>
<feBlend mode="normal" in="SourceGraphic" in2="effect1_dropShadow_1018_17" result="shape"/>
</filter>
<filter id="filter3_d_1018_17" x="892.765" y="140.04" width="90.9414" height="84.3257" filterUnits="userSpaceOnUse" color-interpolation-filters="sRGB">
<feFlood flood-opacity="0" result="BackgroundImageFix"/>
<feColorMatrix in="SourceAlpha" type="matrix" values="0 0 0 0 0 0 0 0 0 0 0 0 0 0 0 0 0 0 127 0" result="hardAlpha"/>
<feOffset dy="4"/>
<feGaussianBlur stdDeviation="2"/>
<feComposite in2="hardAlpha" operator="out"/>
<feColorMatrix type="matrix" values="0 0 0 0 0 0 0 0 0 0 0 0 0 0 0 0 0 0 0.25 0"/>
<feBlend mode="normal" in2="BackgroundImageFix" result="effect1_dropShadow_1018_17"/>
<feBlend mode="normal" in="SourceGraphic" in2="effect1_dropShadow_1018_17" result="shape"/>
</filter>
<filter id="filter4_d_1018_17" x="-2.41064" y="83.0503" width="338.821" height="272.2" filterUnits="userSpaceOnUse" color-interpolation-filters="sRGB">
<feFlood flood-opacity="0" result="BackgroundImageFix"/>
<feColorMatrix in="SourceAlpha" type="matrix" values="0 0 0 0 0 0 0 0 0 0 0 0 0 0 0 0 0 0 127 0" result="hardAlpha"/>
<feOffset dy="4"/>
<feGaussianBlur stdDeviation="2"/>
<feComposite in2="hardAlpha" operator="out"/>
<feColorMatrix type="matrix" values="0 0 0 0 0 0 0 0 0 0 0 0 0 0 0 0 0 0 0.25 0"/>
<feBlend mode="normal" in2="BackgroundImageFix" result="effect1_dropShadow_1018_17"/>
<feBlend mode="normal" in="SourceGraphic" in2="effect1_dropShadow_1018_17" result="shape"/>
</filter>
<filter id="filter5_d_1018_17" x="121.112" y="83.0503" width="92.2495" height="84.3149" filterUnits="userSpaceOnUse" color-interpolation-filters="sRGB">
<feFlood flood-opacity="0" result="BackgroundImageFix"/>
<feColorMatrix in="SourceAlpha" type="matrix" values="0 0 0 0 0 0 0 0 0 0 0 0 0 0 0 0 0 0 127 0" result="hardAlpha"/>
<feOffset dy="4"/>
<feGaussianBlur stdDeviation="2"/>
<feComposite in2="hardAlpha" operator="out"/>
<feColorMatrix type="matrix" values="0 0 0 0 0 0 0 0 0 0 0 0 0 0 0 0 0 0 0.25 0"/>
<feBlend mode="normal" in2="BackgroundImageFix" result="effect1_dropShadow_1018_17"/>
<feBlend mode="normal" in="SourceGraphic" in2="effect1_dropShadow_1018_17" result="shape"/>
</filter>
</defs>
</svg>
