<svg width="183" height="204" viewBox="0 0 183 204" fill="none" xmlns="http://www.w3.org/2000/svg">
<path d="M161.249 143.984C160.176 143.553 158.974 144.125 158.566 145.262C156.943 149.787 154.929 154.601 152.195 158.609C151.952 156.545 151.486 154.501 151.113 152.861C150.971 152.238 150.837 151.649 150.794 151.371C150.61 150.17 149.54 149.356 148.407 149.55C147.272 149.745 146.502 150.876 146.686 152.077C146.754 152.52 146.893 153.126 147.067 153.894C147.446 155.557 148.019 158.071 148.16 160.28C148.312 162.65 147.892 163.594 147.62 163.778C147.487 163.868 147.369 163.971 147.263 164.085C144.845 166.02 142.02 167.324 138.687 167.658V134.095C138.687 129.18 134.922 125.19 130.277 125.19C125.631 125.19 121.866 129.18 121.866 134.095V192.907C121.866 197.822 138.687 197.822 138.687 192.907V172.079C143.25 171.715 147.014 169.913 150.141 167.281C150.221 167.218 150.297 167.152 150.371 167.085C156.378 161.9 160.007 153.656 162.457 146.825C162.865 145.687 162.324 144.416 161.249 143.984Z" fill="#8E6049"/>
<path d="M176.134 92.3983C175.164 91.3725 174.129 90.462 173.045 89.6536C173.812 89.0448 174.549 88.3751 175.247 87.6371C183.209 79.2093 183.209 65.5453 175.247 57.1174C167.319 48.7261 154.488 48.6929 146.518 57.011C145.879 53.8829 144.415 50.9056 142.118 48.4746C135.754 41.7376 125.434 41.7376 119.069 48.4746C118.156 49.44 117.38 50.4932 116.729 51.6058C108.464 47.3169 98.2005 48.8029 91.3284 56.0767C83.3866 64.4827 82.7456 77.6824 89.3928 86.8702C84.6743 87.4914 80.1075 89.7127 76.4848 93.5475C67.8384 102.699 67.8384 117.537 76.4848 126.689C80.8612 131.321 86.6139 133.604 92.3496 133.547C91.3439 138.202 92.5506 143.284 95.976 146.91C101.272 152.515 109.858 152.515 115.154 146.91C115.891 146.13 116.521 145.282 117.052 144.387C117.132 144.474 117.207 144.564 117.289 144.65C125.776 153.634 139.536 153.634 148.023 144.65C150.911 141.594 152.814 137.89 153.736 133.98C161.492 136.076 170.063 133.916 176.133 127.491C185.289 117.8 185.289 102.088 176.134 92.3983Z" fill="#267828"/>
<path d="M126.751 167.172C126.46 167.172 126.165 167.107 125.883 166.971C115.902 162.112 102.749 153.857 103.753 138.327C103.831 137.114 104.825 136.197 105.971 136.28C107.117 136.363 107.983 137.414 107.905 138.628C107.086 151.296 118.012 158.291 127.622 162.968C128.666 163.477 129.123 164.785 128.643 165.89C128.292 166.697 127.539 167.172 126.751 167.172Z" fill="#8E6049"/>
<g filter="url(#filter0_d_1038_3)">
<path d="M117.052 128.325C115.722 127.775 114.233 128.504 113.727 129.955C111.717 135.73 109.221 141.873 105.835 146.988C105.533 144.354 104.956 141.745 104.494 139.653C104.318 138.858 104.151 138.106 104.099 137.751C103.87 136.219 102.545 135.18 101.141 135.427C99.7353 135.676 98.7812 137.12 99.0092 138.652C99.0934 139.218 99.265 139.991 99.4812 140.971C99.9508 143.093 100.661 146.301 100.835 149.119C101.023 152.144 100.503 153.349 100.166 153.584C100.002 153.698 99.8551 153.83 99.7235 153.975C96.7281 156.444 93.2282 158.108 89.0985 158.535V115.705C89.0985 109.434 84.4339 104.343 78.6786 104.343C72.9233 104.343 68.2588 109.434 68.2588 115.705V190.755C68.2588 197.026 89.0985 197.026 89.0985 190.755V164.176C94.7524 163.712 99.4152 161.412 103.29 158.053C103.388 157.973 103.482 157.889 103.575 157.804C111.017 151.187 115.513 140.667 118.548 131.95C119.053 130.499 118.383 128.876 117.052 128.325Z" fill="#8E6049"/>
<path d="M135.493 62.4978C134.292 61.1888 133.009 60.0269 131.667 58.9953C132.617 58.2185 133.53 57.3639 134.394 56.4222C144.259 45.6675 144.259 28.2313 134.394 17.4766C124.572 6.76863 108.676 6.72623 98.8009 17.3409C98.0092 13.3491 96.1959 9.54988 93.3503 6.44772C85.4645 -2.14924 72.6791 -2.14924 64.7929 6.44772C63.6629 7.67964 62.7006 9.02358 61.8946 10.4434C51.6549 4.97036 38.9387 6.86666 30.4245 16.1486C20.5852 26.8753 19.791 43.7191 28.0264 55.4435C22.1805 56.2363 16.5226 59.0708 12.0343 63.9642C1.32189 75.6427 1.32189 94.577 12.0343 106.255C17.4564 112.166 24.5836 115.08 31.6898 115.007C30.4438 120.947 31.9388 127.432 36.1827 132.059C42.744 139.212 53.3819 139.212 59.9432 132.059C60.8555 131.064 61.6362 129.982 62.2946 128.839C62.3934 128.95 62.4869 129.066 62.5878 129.176C73.103 140.639 90.1509 140.639 100.666 129.176C104.244 125.275 106.601 120.549 107.744 115.56C117.353 118.234 127.971 115.478 135.493 107.279C146.836 94.9123 146.836 74.8632 135.493 62.4978Z" fill="#2BA52E"/>
<path d="M74.3117 157.915C73.9513 157.915 73.5849 157.833 73.2359 157.658C60.8704 151.458 44.5743 140.923 45.8181 121.106C45.9152 119.558 47.1462 118.389 48.5659 118.494C49.9863 118.6 51.0589 119.941 50.9619 121.49C49.9475 137.656 63.484 146.582 75.3903 152.551C76.6841 153.2 77.2503 154.868 76.6555 156.279C76.221 157.309 75.2876 157.915 74.3117 157.915Z" fill="#8E6049"/>
</g>
<defs>
<filter id="filter0_d_1038_3" x="0" y="0" width="148" height="203.458" filterUnits="userSpaceOnUse" color-interpolation-filters="sRGB">
<feFlood flood-opacity="0" result="BackgroundImageFix"/>
<feColorMatrix in="SourceAlpha" type="matrix" values="0 0 0 0 0 0 0 0 0 0 0 0 0 0 0 0 0 0 127 0" result="hardAlpha"/>
<feOffset dy="4"/>
<feGaussianBlur stdDeviation="2"/>
<feComposite in2="hardAlpha" operator="out"/>
<feColorMatrix type="matrix" values="0 0 0 0 0 0 0 0 0 0 0 0 0 0 0 0 0 0 0.25 0"/>
<feBlend mode="normal" in2="BackgroundImageFix" result="effect1_dropShadow_1038_3"/>
<feBlend mode="normal" in="SourceGraphic" in2="effect1_dropShadow_1038_3" result="shape"/>
</filter>
</defs>
</svg>
