<svg width="306" height="266" viewBox="0 0 306 266" fill="none" xmlns="http://www.w3.org/2000/svg">
<g filter="url(#filter0_d_1038_2)">
<path d="M280.416 226.432H211.028C189.496 226.224 180.801 224.284 175 215.557C177.024 190.308 184.901 190.247 201.421 195.301C209.153 172.399 222.484 172.385 249.191 176.537C276.881 159.034 283.057 177.173 298.83 195.301C304.843 215.891 298.252 221.073 280.416 226.432Z" fill="#2BA52E"/>
<path d="M280.416 226.432H211.028C189.496 226.224 180.801 224.284 175 215.557C177.024 190.308 184.901 190.247 201.421 195.301C209.153 172.399 222.484 172.385 249.191 176.537C276.881 159.034 283.057 177.173 298.83 195.301C304.843 215.891 298.252 221.073 280.416 226.432Z" stroke="#2BA52E"/>
</g>
<g filter="url(#filter1_d_1038_2)">
<path d="M221.821 73.7344C239.101 73.7344 253.109 59.8346 253.109 42.6882C253.109 25.5419 239.101 11.6421 221.821 11.6421C204.541 11.6421 190.532 25.5419 190.532 42.6882C190.532 59.8346 204.541 73.7344 221.821 73.7344Z" fill="#22BA8E"/>
<path d="M151.421 93.1382C168.702 93.1382 182.71 79.2384 182.71 62.0921C182.71 44.9457 168.702 31.0459 151.421 31.0459C134.141 31.0459 120.133 44.9457 120.133 62.0921C120.133 79.2384 134.141 93.1382 151.421 93.1382Z" fill="#22BA8E"/>
<path d="M186.621 62.0923C203.901 62.0923 217.909 48.1925 217.909 31.0462C217.909 13.8998 203.901 0 186.621 0C169.34 0 155.332 13.8998 155.332 31.0462C155.332 48.1925 169.34 62.0923 186.621 62.0923Z" fill="#80D25B"/>
<path d="M233.553 112.543C250.833 112.543 264.842 98.6427 264.842 81.4964C264.842 64.35 250.833 50.4502 233.553 50.4502C216.273 50.4502 202.265 64.35 202.265 81.4964C202.265 98.6427 216.273 112.543 233.553 112.543Z" fill="#80D25B"/>
<path d="M210.087 143.588C227.368 143.588 241.376 129.688 241.376 112.542C241.376 95.3954 227.368 81.4956 210.087 81.4956C192.807 81.4956 178.799 95.3954 178.799 112.542C178.799 129.688 192.807 143.588 210.087 143.588Z" fill="#80D25B"/>
<path fill-rule="evenodd" clip-rule="evenodd" d="M186.621 89.2583H202.265C202.265 89.2583 200.258 123.265 202.265 159.112C204.272 194.959 217.909 228.966 217.909 228.966H170.977C170.977 228.966 184.717 193.119 186.621 159.112C188.525 125.105 186.621 89.2583 186.621 89.2583Z" fill="#BD7575"/>
<path d="M45.8223 225.085H249.536" stroke="#22BA8E" stroke-width="3.68421" stroke-linecap="square"/>
<path d="M194.443 128.065C224.683 128.065 249.198 103.741 249.198 73.7346C249.198 43.7285 224.683 19.4038 194.443 19.4038C164.203 19.4038 139.688 43.7285 139.688 73.7346C139.688 103.741 164.203 128.065 194.443 128.065Z" fill="#22BA8E"/>
<path d="M163.154 135.827C180.435 135.827 194.443 121.927 194.443 104.781C194.443 87.6342 180.435 73.7344 163.154 73.7344C145.874 73.7344 131.866 87.6342 131.866 104.781C131.866 121.927 145.874 135.827 163.154 135.827Z" fill="#80D25B"/>
<path d="M38 43.7052L51.548 51.622L65.1429 42.6885" stroke="#BD7575" stroke-width="3.68421" stroke-linecap="round"/>
<path d="M53.6445 63.109L67.1925 71.0258L80.7874 62.0923" stroke="#BD7575" stroke-width="3.68421" stroke-linecap="round"/>
<path d="M84.9326 24.3019L98.4806 32.2187L112.075 23.2852" stroke="#BD7575" stroke-width="3.68421" stroke-linecap="round"/>
</g>
<g filter="url(#filter2_d_1038_2)">
<path d="M134.01 186.63C132.48 186.048 130.767 186.819 130.186 188.352C127.874 194.453 125.004 200.943 121.11 206.347C120.762 203.564 120.1 200.808 119.568 198.597C119.365 197.757 119.174 196.963 119.113 196.588C118.851 194.969 117.326 193.872 115.712 194.133C114.095 194.396 112.998 195.921 113.26 197.54C113.357 198.138 113.555 198.955 113.803 199.99C114.343 202.232 115.16 205.621 115.36 208.598C115.576 211.794 114.978 213.067 114.591 213.315C114.402 213.436 114.233 213.575 114.082 213.728C110.637 216.337 106.612 218.095 101.863 218.546V173.297C101.863 166.672 96.4989 161.293 89.8803 161.293C83.2617 161.293 77.8975 166.672 77.8975 173.297V252.585C77.8975 259.211 101.863 259.211 101.863 252.585V224.506C108.365 224.016 113.727 221.585 118.183 218.037C118.296 217.953 118.405 217.864 118.511 217.773C127.07 210.783 132.24 199.669 135.73 190.459C136.311 188.926 135.541 187.211 134.01 186.63Z" fill="#8E6049"/>
<path d="M155.217 117.085C153.836 115.702 152.36 114.474 150.817 113.384C151.909 112.564 152.96 111.661 153.953 110.666C165.298 99.3039 165.298 80.8829 153.953 69.5208C142.657 58.208 124.377 58.1633 113.021 69.3774C112.111 65.1602 110.025 61.1464 106.753 57.869C97.6842 48.7865 82.9809 48.7865 73.9119 57.869C72.6124 59.1705 71.5057 60.5904 70.5788 62.0903C58.8032 56.3082 44.1795 58.3116 34.3882 68.1178C23.073 79.4503 22.1596 97.2455 31.6304 109.632C24.9076 110.47 18.401 113.464 13.2395 118.634C0.920177 130.972 0.920177 150.976 13.2395 163.313C19.4748 169.558 27.6711 172.637 35.8432 172.56C34.4104 178.835 36.1296 185.687 41.0101 190.575C48.5556 198.132 60.7891 198.132 68.3347 190.575C69.3839 189.524 70.2817 188.38 71.0387 187.173C71.1524 187.291 71.2599 187.412 71.376 187.529C83.4684 199.639 103.073 199.639 115.166 187.529C119.281 183.407 121.992 178.414 123.306 173.144C134.356 175.969 146.567 173.057 155.216 164.395C168.261 151.33 168.261 130.149 155.217 117.085Z" fill="#2BA52E"/>
<path d="M84.858 217.892C84.4436 217.892 84.0222 217.804 83.6209 217.62C69.4005 211.07 50.66 199.94 52.0904 179.004C52.202 177.368 53.6176 176.133 55.2503 176.244C56.8839 176.356 58.1173 177.773 58.0057 179.409C56.8391 196.488 72.4062 205.918 86.0984 212.224C87.5863 212.91 88.2375 214.673 87.5534 216.162C87.0537 217.251 85.9802 217.892 84.858 217.892Z" fill="#8E6049"/>
</g>
<defs>
<filter id="filter0_d_1038_2" x="170.488" y="166.932" width="135.012" height="66" filterUnits="userSpaceOnUse" color-interpolation-filters="sRGB">
<feFlood flood-opacity="0" result="BackgroundImageFix"/>
<feColorMatrix in="SourceAlpha" type="matrix" values="0 0 0 0 0 0 0 0 0 0 0 0 0 0 0 0 0 0 127 0" result="hardAlpha"/>
<feOffset dy="2"/>
<feGaussianBlur stdDeviation="2"/>
<feComposite in2="hardAlpha" operator="out"/>
<feColorMatrix type="matrix" values="0 0 0 0 0 0 0 0 0 0 0 0 0 0 0 0 0 0 0.25 0"/>
<feBlend mode="normal" in2="BackgroundImageFix" result="effect1_dropShadow_1038_2"/>
<feBlend mode="normal" in="SourceGraphic" in2="effect1_dropShadow_1038_2" result="shape"/>
</filter>
<filter id="filter1_d_1038_2" x="32.1577" y="0" width="236.684" height="236.966" filterUnits="userSpaceOnUse" color-interpolation-filters="sRGB">
<feFlood flood-opacity="0" result="BackgroundImageFix"/>
<feColorMatrix in="SourceAlpha" type="matrix" values="0 0 0 0 0 0 0 0 0 0 0 0 0 0 0 0 0 0 127 0" result="hardAlpha"/>
<feOffset dy="4"/>
<feGaussianBlur stdDeviation="2"/>
<feComposite in2="hardAlpha" operator="out"/>
<feColorMatrix type="matrix" values="0 0 0 0 0 0 0 0 0 0 0 0 0 0 0 0 0 0 0.25 0"/>
<feBlend mode="normal" in2="BackgroundImageFix" result="effect1_dropShadow_1038_2"/>
<feBlend mode="normal" in="SourceGraphic" in2="effect1_dropShadow_1038_2" result="shape"/>
</filter>
<filter id="filter2_d_1038_2" x="0" y="51.0571" width="169" height="214.498" filterUnits="userSpaceOnUse" color-interpolation-filters="sRGB">
<feFlood flood-opacity="0" result="BackgroundImageFix"/>
<feColorMatrix in="SourceAlpha" type="matrix" values="0 0 0 0 0 0 0 0 0 0 0 0 0 0 0 0 0 0 127 0" result="hardAlpha"/>
<feOffset dy="4"/>
<feGaussianBlur stdDeviation="2"/>
<feComposite in2="hardAlpha" operator="out"/>
<feColorMatrix type="matrix" values="0 0 0 0 0 0 0 0 0 0 0 0 0 0 0 0 0 0 0.25 0"/>
<feBlend mode="normal" in2="BackgroundImageFix" result="effect1_dropShadow_1038_2"/>
<feBlend mode="normal" in="SourceGraphic" in2="effect1_dropShadow_1038_2" result="shape"/>
</filter>
</defs>
</svg>
